<svg width="28" height="34" viewBox="0 0 28 34" fill="none" xmlns="http://www.w3.org/2000/svg">
<path d="M26.811 27.0089C25.5902 24.8389 23.5909 22.381 20.3359 20.9838C18.4743 22.2861 16.2127 23.053 13.7746 23.053C11.3352 23.053 9.07365 22.2862 7.21197 20.9838C3.95704 22.381 1.95761 24.8389 0.73758 27.0089C-0.881629 29.8871 0.387866 33.9596 3.18822 33.9596C5.98864 33.9596 13.7747 33.9596 13.7747 33.9596C13.7747 33.9596 21.56 33.9596 24.3605 33.9596C27.1608 33.9596 28.4303 29.8871 26.811 27.0089Z" fill="black" fill-opacity="0.14"/>
<path d="M13.7746 20.3292C18.5559 20.3292 22.4308 16.453 22.4308 11.6723V9.59851C22.4308 4.81788 18.5559 0.941681 13.7746 0.941681C8.99255 0.941681 5.11707 4.81788 5.11707 9.59857V11.6723C5.11707 16.453 8.99262 20.3292 13.7746 20.3292Z" fill="black" fill-opacity="0.14"/>
</svg>
