<svg width="17" height="18" viewBox="0 0 17 18" fill="none" xmlns="http://www.w3.org/2000/svg">
<path d="M2.83325 10.208C3.73061 10.208 4.45808 10.9357 4.45825 11.833V15.375C4.45825 16.2725 3.73072 17 2.83325 17C1.93579 17 1.20825 16.2725 1.20825 15.375V11.833C1.20843 10.9357 1.9359 10.208 2.83325 10.208ZM8.50024 1C9.39758 1.00018 10.1252 1.72764 10.1252 2.625V15.375C10.1252 16.2724 9.39759 16.9998 8.50024 17C7.60275 17 6.87524 16.2725 6.87524 15.375V2.625C6.87524 1.72753 7.60275 1 8.50024 1ZM14.1663 5.95801C15.0636 5.95801 15.7911 6.68569 15.7913 7.58301V15.375C15.7913 16.2725 15.0638 17 14.1663 17C13.2689 16.9998 12.5413 16.2724 12.5413 15.375V7.58301C12.5414 6.6858 13.269 5.95818 14.1663 5.95801Z" fill="#010101" stroke="#F7F7F7"/>
</svg>
