<svg width="16" height="12" viewBox="0 0 16 12" fill="none" xmlns="http://www.w3.org/2000/svg">
<path fill-rule="evenodd" clip-rule="evenodd" d="M0.5 3C0.5 1.34314 1.84315 0 3.5 0H12.5C14.1568 0 15.5 1.34314 15.5 3V3.375C15.5 3.5821 15.3321 3.75 15.125 3.75H0.875C0.667895 3.75 0.5 3.5821 0.5 3.375V3ZM0.875 5.25C0.667895 5.25 0.5 5.41792 0.5 5.625V9C0.5 10.6568 1.84315 12 3.5 12H12.5C14.1568 12 15.5 10.6568 15.5 9V5.625C15.5 5.41792 15.3321 5.25 15.125 5.25H0.875ZM8.75 8.25C8.75 7.83577 9.08578 7.5 9.5 7.5H11.75C12.1642 7.5 12.5 7.83577 12.5 8.25C12.5 8.66422 12.1642 9 11.75 9H9.5C9.08578 9 8.75 8.66422 8.75 8.25Z" fill="#010101"/>
</svg>
